<mxfile host="app.diagrams.net" agent="Mozilla/5.0 (Macintosh; Intel Mac OS X 10_15_7) AppleWebKit/537.36 (KHTML, like Gecko) Chrome/140.0.0.0 Safari/537.36" version="28.2.7" pages="2">
  <diagram name="Page-1" id="kt67FiTdRdiTBwS3hHnf">
    <mxGraphModel dx="1355" dy="855" grid="1" gridSize="10" guides="1" tooltips="1" connect="1" arrows="1" fold="1" page="1" pageScale="1" pageWidth="850" pageHeight="1100" math="0" shadow="0">
      <root>
        <mxCell id="0" />
        <mxCell id="1" parent="0" />
        <mxCell id="EXxbOQ_vP-gXlQg0Aom6-20" value="" style="curved=1;endArrow=classic;html=1;rounded=0;exitX=1;exitY=0.5;exitDx=0;exitDy=0;entryX=0;entryY=0.5;entryDx=0;entryDy=0;" edge="1" parent="1" source="EXxbOQ_vP-gXlQg0Aom6-1" target="EXxbOQ_vP-gXlQg0Aom6-2">
          <mxGeometry width="50" height="50" relative="1" as="geometry">
            <mxPoint x="550" y="470" as="sourcePoint" />
            <mxPoint x="600" y="420" as="targetPoint" />
            <Array as="points">
              <mxPoint x="410" y="10" />
            </Array>
          </mxGeometry>
        </mxCell>
        <mxCell id="ydr2VGFyWUjpLMUsKzbC-1" value="&lt;span style=&quot;background-color: rgb(255, 255, 0);&quot;&gt;&lt;font style=&quot;font-size: 16px;&quot;&gt;t1&lt;/font&gt;&lt;/span&gt;" style="edgeLabel;html=1;align=center;verticalAlign=middle;resizable=0;points=[];" vertex="1" connectable="0" parent="EXxbOQ_vP-gXlQg0Aom6-20">
          <mxGeometry x="-0.6222" y="-19" relative="1" as="geometry">
            <mxPoint x="1" y="-1" as="offset" />
          </mxGeometry>
        </mxCell>
        <mxCell id="EXxbOQ_vP-gXlQg0Aom6-21" value="" style="curved=1;endArrow=classic;html=1;rounded=0;exitX=1;exitY=0.5;exitDx=0;exitDy=0;" edge="1" parent="1" source="EXxbOQ_vP-gXlQg0Aom6-1">
          <mxGeometry width="50" height="50" relative="1" as="geometry">
            <mxPoint x="500" y="420" as="sourcePoint" />
            <mxPoint x="720" y="280" as="targetPoint" />
            <Array as="points">
              <mxPoint x="410" y="90" />
            </Array>
          </mxGeometry>
        </mxCell>
        <mxCell id="ydr2VGFyWUjpLMUsKzbC-2" value="&lt;span style=&quot;background-color: rgb(255, 255, 0);&quot;&gt;&lt;font style=&quot;font-size: 16px;&quot;&gt;t2&lt;/font&gt;&lt;/span&gt;" style="edgeLabel;html=1;align=center;verticalAlign=middle;resizable=0;points=[];" vertex="1" connectable="0" parent="EXxbOQ_vP-gXlQg0Aom6-21">
          <mxGeometry x="-0.6171" y="-14" relative="1" as="geometry">
            <mxPoint x="3" y="1" as="offset" />
          </mxGeometry>
        </mxCell>
        <mxCell id="EXxbOQ_vP-gXlQg0Aom6-22" value="" style="curved=1;endArrow=classic;html=1;rounded=0;exitX=1;exitY=0.5;exitDx=0;exitDy=0;entryX=0;entryY=0.5;entryDx=0;entryDy=0;" edge="1" parent="1" source="EXxbOQ_vP-gXlQg0Aom6-1" target="EXxbOQ_vP-gXlQg0Aom6-2">
          <mxGeometry width="50" height="50" relative="1" as="geometry">
            <mxPoint x="550" y="660" as="sourcePoint" />
            <mxPoint x="710" y="280" as="targetPoint" />
            <Array as="points">
              <mxPoint x="390" y="170" />
            </Array>
          </mxGeometry>
        </mxCell>
        <mxCell id="EXxbOQ_vP-gXlQg0Aom6-23" value="" style="curved=1;endArrow=classic;html=1;rounded=0;exitX=1;exitY=0.5;exitDx=0;exitDy=0;entryX=0;entryY=0.5;entryDx=0;entryDy=0;" edge="1" parent="1" source="EXxbOQ_vP-gXlQg0Aom6-1" target="EXxbOQ_vP-gXlQg0Aom6-2">
          <mxGeometry width="50" height="50" relative="1" as="geometry">
            <mxPoint x="490" y="340" as="sourcePoint" />
            <mxPoint x="680" y="350" as="targetPoint" />
            <Array as="points">
              <mxPoint x="400" y="250" />
            </Array>
          </mxGeometry>
        </mxCell>
        <mxCell id="EXxbOQ_vP-gXlQg0Aom6-24" value="" style="curved=1;endArrow=classic;html=1;rounded=0;exitX=1;exitY=0.5;exitDx=0;exitDy=0;entryX=0;entryY=0.5;entryDx=0;entryDy=0;" edge="1" parent="1" source="EXxbOQ_vP-gXlQg0Aom6-1" target="EXxbOQ_vP-gXlQg0Aom6-2">
          <mxGeometry width="50" height="50" relative="1" as="geometry">
            <mxPoint x="500" y="290" as="sourcePoint" />
            <mxPoint x="700" y="350" as="targetPoint" />
            <Array as="points">
              <mxPoint x="460" y="330" />
            </Array>
          </mxGeometry>
        </mxCell>
        <mxCell id="EXxbOQ_vP-gXlQg0Aom6-25" value="" style="curved=1;endArrow=classic;html=1;rounded=0;exitX=1;exitY=0.5;exitDx=0;exitDy=0;entryX=0;entryY=0.5;entryDx=0;entryDy=0;" edge="1" parent="1" source="EXxbOQ_vP-gXlQg0Aom6-1" target="EXxbOQ_vP-gXlQg0Aom6-2">
          <mxGeometry width="50" height="50" relative="1" as="geometry">
            <mxPoint x="500" y="300" as="sourcePoint" />
            <mxPoint x="730" y="370" as="targetPoint" />
            <Array as="points">
              <mxPoint x="410" y="410" />
            </Array>
          </mxGeometry>
        </mxCell>
        <mxCell id="EXxbOQ_vP-gXlQg0Aom6-26" value="" style="curved=1;endArrow=classic;html=1;rounded=0;exitX=1;exitY=0.5;exitDx=0;exitDy=0;entryX=0;entryY=0.5;entryDx=0;entryDy=0;" edge="1" parent="1" source="EXxbOQ_vP-gXlQg0Aom6-1" target="EXxbOQ_vP-gXlQg0Aom6-2">
          <mxGeometry width="50" height="50" relative="1" as="geometry">
            <mxPoint x="530" y="330" as="sourcePoint" />
            <mxPoint x="1090" y="330" as="targetPoint" />
            <Array as="points">
              <mxPoint x="400" y="490" />
            </Array>
          </mxGeometry>
        </mxCell>
        <mxCell id="EXxbOQ_vP-gXlQg0Aom6-4" value="" style="endArrow=none;html=1;rounded=0;" edge="1" parent="1">
          <mxGeometry width="50" height="50" relative="1" as="geometry">
            <mxPoint x="760" y="440" as="sourcePoint" />
            <mxPoint x="759.5" y="80" as="targetPoint" />
          </mxGeometry>
        </mxCell>
        <mxCell id="EXxbOQ_vP-gXlQg0Aom6-3" value="" style="endArrow=none;html=1;rounded=0;" edge="1" parent="1">
          <mxGeometry width="50" height="50" relative="1" as="geometry">
            <mxPoint x="120" y="440" as="sourcePoint" />
            <mxPoint x="120" y="80" as="targetPoint" />
          </mxGeometry>
        </mxCell>
        <mxCell id="EXxbOQ_vP-gXlQg0Aom6-1" value="Block 1" style="ellipse;whiteSpace=wrap;html=1;aspect=fixed;" vertex="1" parent="1">
          <mxGeometry x="80" y="240" width="80" height="80" as="geometry" />
        </mxCell>
        <mxCell id="EXxbOQ_vP-gXlQg0Aom6-2" value="Block 1" style="ellipse;whiteSpace=wrap;html=1;aspect=fixed;" vertex="1" parent="1">
          <mxGeometry x="720" y="240" width="80" height="80" as="geometry" />
        </mxCell>
        <mxCell id="EXxbOQ_vP-gXlQg0Aom6-5" value="Client 1" style="text;html=1;whiteSpace=wrap;strokeColor=none;fillColor=none;align=center;verticalAlign=middle;rounded=0;" vertex="1" parent="1">
          <mxGeometry x="90" y="40" width="60" height="30" as="geometry" />
        </mxCell>
        <mxCell id="EXxbOQ_vP-gXlQg0Aom6-6" value="Client 2" style="text;html=1;whiteSpace=wrap;strokeColor=none;fillColor=none;align=center;verticalAlign=middle;rounded=0;" vertex="1" parent="1">
          <mxGeometry x="730" y="40" width="60" height="30" as="geometry" />
        </mxCell>
        <mxCell id="EXxbOQ_vP-gXlQg0Aom6-7" value="Chunk 1" style="ellipse;whiteSpace=wrap;html=1;" vertex="1" parent="1">
          <mxGeometry x="395" y="130" width="60" height="30" as="geometry" />
        </mxCell>
        <mxCell id="EXxbOQ_vP-gXlQg0Aom6-8" value="Chunk 2" style="ellipse;whiteSpace=wrap;html=1;" vertex="1" parent="1">
          <mxGeometry x="395" y="170" width="60" height="30" as="geometry" />
        </mxCell>
        <mxCell id="EXxbOQ_vP-gXlQg0Aom6-9" value="Chunk 3" style="ellipse;whiteSpace=wrap;html=1;" vertex="1" parent="1">
          <mxGeometry x="395" y="210" width="60" height="30" as="geometry" />
        </mxCell>
        <mxCell id="EXxbOQ_vP-gXlQg0Aom6-10" value="Chunk 4" style="ellipse;whiteSpace=wrap;html=1;" vertex="1" parent="1">
          <mxGeometry x="395" y="250" width="60" height="30" as="geometry" />
        </mxCell>
        <mxCell id="EXxbOQ_vP-gXlQg0Aom6-11" value="Chunk 1*" style="ellipse;whiteSpace=wrap;html=1;" vertex="1" parent="1">
          <mxGeometry x="395" y="290" width="60" height="30" as="geometry" />
        </mxCell>
        <mxCell id="EXxbOQ_vP-gXlQg0Aom6-12" value="Chunk 2*" style="ellipse;whiteSpace=wrap;html=1;" vertex="1" parent="1">
          <mxGeometry x="395" y="330" width="60" height="30" as="geometry" />
        </mxCell>
        <mxCell id="EXxbOQ_vP-gXlQg0Aom6-13" value="Chunk 3*" style="ellipse;whiteSpace=wrap;html=1;" vertex="1" parent="1">
          <mxGeometry x="395" y="370" width="60" height="30" as="geometry" />
        </mxCell>
        <mxCell id="ydr2VGFyWUjpLMUsKzbC-3" value="&lt;span style=&quot;background-color: rgb(255, 255, 0);&quot;&gt;&lt;font style=&quot;font-size: 16px;&quot;&gt;t3&lt;/font&gt;&lt;/span&gt;" style="edgeLabel;html=1;align=center;verticalAlign=middle;resizable=0;points=[];" vertex="1" connectable="0" parent="1">
          <mxGeometry x="266" y="208" as="geometry">
            <mxPoint x="9" y="31" as="offset" />
          </mxGeometry>
        </mxCell>
        <mxCell id="ydr2VGFyWUjpLMUsKzbC-4" value="&lt;span style=&quot;background-color: rgb(255, 255, 0);&quot;&gt;&lt;font style=&quot;font-size: 16px;&quot;&gt;t4&lt;/font&gt;&lt;/span&gt;" style="edgeLabel;html=1;align=center;verticalAlign=middle;resizable=0;points=[];" vertex="1" connectable="0" parent="1">
          <mxGeometry x="266" y="238" as="geometry">
            <mxPoint x="9" y="31" as="offset" />
          </mxGeometry>
        </mxCell>
        <mxCell id="ydr2VGFyWUjpLMUsKzbC-5" value="&lt;span style=&quot;background-color: rgb(255, 255, 0);&quot;&gt;&lt;font style=&quot;font-size: 16px;&quot;&gt;t5&lt;/font&gt;&lt;/span&gt;" style="edgeLabel;html=1;align=center;verticalAlign=middle;resizable=0;points=[];" vertex="1" connectable="0" parent="1">
          <mxGeometry x="266" y="265" as="geometry">
            <mxPoint x="9" y="31" as="offset" />
          </mxGeometry>
        </mxCell>
        <mxCell id="ydr2VGFyWUjpLMUsKzbC-6" value="&lt;span style=&quot;background-color: rgb(255, 255, 0);&quot;&gt;&lt;font style=&quot;font-size: 16px;&quot;&gt;t6&lt;/font&gt;&lt;/span&gt;" style="edgeLabel;html=1;align=center;verticalAlign=middle;resizable=0;points=[];" vertex="1" connectable="0" parent="1">
          <mxGeometry x="266" y="294" as="geometry">
            <mxPoint x="9" y="31" as="offset" />
          </mxGeometry>
        </mxCell>
        <mxCell id="ydr2VGFyWUjpLMUsKzbC-7" value="&lt;span style=&quot;background-color: rgb(255, 255, 0);&quot;&gt;&lt;font style=&quot;font-size: 16px;&quot;&gt;t7&lt;/font&gt;&lt;/span&gt;" style="edgeLabel;html=1;align=center;verticalAlign=middle;resizable=0;points=[];" vertex="1" connectable="0" parent="1">
          <mxGeometry x="266" y="324" as="geometry">
            <mxPoint x="9" y="31" as="offset" />
          </mxGeometry>
        </mxCell>
      </root>
    </mxGraphModel>
  </diagram>
  <diagram id="VH1IwTiacX3JeRk8PUHq" name="Page-2">
    <mxGraphModel dx="1016" dy="641" grid="1" gridSize="10" guides="1" tooltips="1" connect="1" arrows="1" fold="1" page="1" pageScale="1" pageWidth="850" pageHeight="1100" math="0" shadow="0">
      <root>
        <mxCell id="0" />
        <mxCell id="1" parent="0" />
      </root>
    </mxGraphModel>
  </diagram>
</mxfile>
